<?xml version="1.0" encoding="UTF-8" standalone="no"?>
<svg
   xmlns:dc="http://purl.org/dc/elements/1.1/"
   xmlns:cc="http://creativecommons.org/ns#"
   xmlns:rdf="http://www.w3.org/1999/02/22-rdf-syntax-ns#"
   xmlns:svg="http://www.w3.org/2000/svg"
   xmlns="http://www.w3.org/2000/svg"
   id="svg2"
   viewBox="0 0 419.99918 115.96693"
   style="clip-rule:evenodd;fill-rule:evenodd;image-rendering:optimizeQuality;shape-rendering:geometricPrecision;text-rendering:geometricPrecision"
   version="1.1"
   height="116"
   width="419.99918"
   xml:space="preserve"><metadata
   id="metadata359"><rdf:RDF><cc:Work
       rdf:about=""><dc:format>image/svg+xml</dc:format><dc:type
         rdf:resource="http://purl.org/dc/dcmitype/StillImage" /><dc:title></dc:title></cc:Work></rdf:RDF></metadata>
 <defs
   id="defs4">
  <style
   id="style6"
   type="text/css">
   <![CDATA[
    .fil1 {fill:#5B5B5B;fill-rule:nonzero}
    .fil0 {fill:#009DAD;fill-rule:nonzero}
   ]]>
  </style>
 </defs>
 <g
   transform="matrix(0.25562995,0,0,0.25562995,-63.907486,-121.10058)"
   id="Слой_x0020_1">
  <metadata
   id="CorelCorpID_0Corel-Layer" />
  <g
   id="_403995288">
   <g
   id="g11">
    <g
   id="g13">
     <path
   style="fill:#009dad;fill-rule:nonzero"
   id="path15"
   d="m 553,699 c 0,-3 -1,-7 -4,-10 -2,-3 -6,-5 -11,-5 -6,0 -12,4 -14,9 -1,-2 -2,-4 -4,-6 -1,-2 -3,-3 -5,-4 2,0 4,-2 5,-3 2,-2 3,-4 4,-7 2,6 7,10 14,10 0,0 0,0 0,0 8,0 15,-6 15,-14 0,-9 -6,-15 -15,-15 -6,0 -12,4 -14,10 -1,-5 -5,-9 -10,-11 6,-2 10,-7 10,-14 0,-8 -6,-15 -14,-16 3,0 6,-1 9,-4 3,-3 4,-6 4,-10 0,-8 -7,-14 -15,-14 -7,0 -14,6 -14,14 0,8 6,14 13,14 -3,1 -7,2 -9,5 -2,2 -3,4 -4,6 -2,-5 -5,-9 -10,-11 5,-2 9,-7 10,-14 0,-4 -2,-7 -5,-10 -3,-3 -7,-5 -11,-5 -7,0 -13,5 -14,11 -2,-6 -8,-11 -15,-11 -8,0 -14,5 -15,13 -2,-7 -8,-13 -16,-13 -7,0 -14,6 -15,13 -1,-7 -7,-12 -14,-12 -8,0 -15,6 -15,14 0,4 2,8 5,10 1,2 4,4 6,4 -6,2 -10,6 -12,12 -1,-6 -7,-11 -14,-11 -8,0 -14,7 -14,14 0,4 1,8 4,11 2,2 5,4 8,4 -7,1 -13,7 -13,15 0,8 6,14 13,15 -7,2 -13,8 -13,15 0,8 5,14 11,16 -6,1 -11,7 -11,14 0,4 2,8 4,11 3,3 7,4 11,4 0,0 0,0 0,0 7,0 12,-4 14,-9 1,2 2,4 4,6 2,2 4,3 7,4 -6,2 -10,7 -10,13 -1,-7 -7,-13 -15,-13 -7,0 -14,6 -14,14 0,8 6,15 14,15 0,0 0,0 0,0 8,0 14,-6 15,-13 0,8 7,14 15,14 l 0,0 c 7,0 12,-4 14,-10 1,2 2,4 4,6 2,2 4,3 7,4 -6,2 -10,7 -10,14 0,8 6,15 14,15 0,0 0,0 0,0 9,0 15,-7 15,-15 0,-6 -4,-12 -10,-14 5,-1 9,-5 10,-9 2,4 6,7 10,9 -5,2 -9,8 -9,14 0,8 6,15 14,15 0,0 1,0 1,0 4,0 8,-1 10,-4 3,-3 4,-6 5,-10 0,4 1,7 4,9 3,3 6,5 10,5 4,0 8,-2 11,-5 3,-2 4,-6 4,-10 0,-7 -4,-12 -11,-14 3,-1 6,-2 8,-4 2,-2 3,-5 4,-8 2,7 8,12 14,12 0,0 1,0 1,0 8,0 15,-7 15,-15 0,-4 -2,-8 -5,-11 -1,-2 -4,-3 -7,-4 6,-2 11,-6 12,-12 2,6 8,11 14,11 l 0,0 c 4,0 8,-2 11,-4 2,-3 4,-7 4,-11 0,-8 -6,-14 -14,-14 8,-1 14,-7 14,-15 z m -25,19 0,0 c -2,2 -3,4 -4,6 -1,-3 -2,-5 -4,-7 -1,-1 -3,-3 -5,-3 4,-2 8,-6 9,-10 2,5 7,9 13,10 -4,0 -7,1 -9,4 z m -34,37 0,0 c -1,-5 -4,-9 -9,-11 4,-2 7,-5 9,-9 2,4 6,8 11,9 -6,1 -10,5 -11,11 z m -30,32 0,0 c -1,-6 -4,-11 -10,-13 3,-1 5,-2 7,-4 1,-1 2,-3 3,-5 2,5 5,8 10,9 -6,2 -10,7 -10,13 z m -101,-73 0,0 c 5,-2 8,-5 10,-9 2,4 5,7 8,9 -3,2 -6,5 -8,9 0,-2 -1,-4 -3,-5 -2,-2 -4,-4 -7,-4 z m 10,-72 0,0 c 1,3 3,6 5,8 1,1 3,2 4,3 -4,2 -7,5 -9,9 -2,-4 -6,-8 -12,-9 6,0 11,-5 12,-11 z m 30,-31 0,0 c 1,3 2,7 5,9 1,1 3,3 5,3 -5,2 -8,5 -10,9 -2,-4 -6,-7 -11,-9 6,-1 11,-6 11,-12 z m 100,42 0,0 c -4,2 -7,4 -9,8 -1,-3 -4,-6 -7,-8 1,-1 2,-2 3,-3 2,-1 3,-4 4,-6 1,4 5,8 9,9 z m -85,-31 0,0 0,0 0,0 z m 31,0 0,0 0,0 0,0 z m 11,61 0,0 c 2,-1 3,-3 4,-5 1,2 3,4 5,5 -2,1 -3,3 -5,4 -1,-1 -2,-3 -4,-4 z m 4,27 0,0 c 2,2 3,3 5,4 -2,1 -4,3 -5,5 -1,-2 -2,-3 -4,-5 2,-1 3,-2 4,-4 z m -31,-32 0,0 c 1,2 3,4 5,5 -2,1 -4,3 -5,4 -1,-1 -3,-3 -5,-4 2,-1 4,-3 5,-5 z m -30,-1 0,0 c 2,2 3,5 6,6 -3,2 -5,4 -6,6 -2,-2 -4,-4 -7,-6 3,-1 6,-3 7,-6 z m 30,33 0,0 c 1,1 3,3 4,4 -1,2 -3,3 -4,5 -1,-2 -3,-4 -4,-5 1,-1 3,-3 4,-4 z m 33,-60 0,0 c 2,1 3,2 4,3 -2,1 -4,3 -6,5 -1,-2 -3,-4 -6,-5 3,-2 4,-4 6,-7 0,2 1,3 2,4 z m -27,3 0,0 c -2,1 -4,3 -6,6 -1,-3 -3,-5 -6,-6 3,-2 5,-4 6,-7 2,2 4,5 6,7 z m -29,0 0,0 c 0,0 0,0 0,0 -4,2 -5,4 -7,7 -2,-3 -4,-5 -8,-7 2,-1 4,-2 5,-3 1,-1 2,-3 3,-5 2,4 4,6 7,8 z m -14,61 0,0 c 3,-2 5,-3 7,-6 1,2 3,4 5,6 -2,2 -4,4 -5,6 -2,-3 -4,-5 -7,-6 z m 61,30 0,0 c 3,-1 5,-4 7,-6 2,2 4,5 7,6 -1,1 -3,2 -4,3 -1,1 -2,3 -3,5 -2,-3 -4,-6 -7,-8 z m 31,-30 0,0 c 2,-2 5,-4 6,-7 2,3 5,5 8,7 -4,1 -6,4 -8,7 -1,-3 -3,-5 -6,-7 z m 6,-23 0,0 c -1,-3 -4,-6 -7,-8 3,-2 6,-4 7,-7 2,3 5,6 8,7 -3,2 -6,4 -8,8 z m 15,-9 0,0 -31,-60 0,0 0,0 31,60 z m -36,-59 0,0 c -4,2 -7,5 -9,8 -2,-3 -5,-6 -9,-8 4,-2 8,-5 9,-10 0,2 2,5 3,7 2,1 4,2 6,3 z m -31,0 0,0 c -4,2 -7,5 -9,9 -1,-4 -5,-7 -9,-9 5,-2 9,-6 10,-11 0,5 4,9 8,11 z m -83,58 0,0 0,0 0,0 z m 14,-7 0,0 c 2,4 5,8 9,9 -4,2 -7,5 -9,9 -2,-4 -6,-8 -11,-9 5,0 9,-4 11,-9 z m -14,37 0,0 0,0 0,0 z m 30,31 0,0 0,0 0,0 z m 5,2 0,0 c 4,-1 7,-4 9,-7 2,3 5,6 8,7 -4,2 -6,5 -8,9 0,-2 -2,-4 -3,-5 -2,-2 -4,-3 -6,-4 z m 24,28 0,0 0,0 0,0 z m 8,-28 0,0 c 3,-1 5,-4 7,-7 2,3 5,6 8,7 -2,1 -3,2 -4,3 -2,1 -3,3 -4,5 0,-2 -1,-3 -3,-5 -1,-1 -2,-2 -4,-3 z m 23,28 0,0 29,0 -29,0 z m 60,-30 0,0 29,-62 0,0 0,0 0,0 -29,62 z m 0,-121 0,0 -150,120 0,0 0,0 0,0 150,-120 z m -150,149 0,0 0,0 0,0 z m 30,1 0,0 29,29 0,0 0,0 -29,-29 z m 60,29 0,0 0,0 0,0 0,0 z m 60,-29 0,0 0,0 0,0 z"
   class="fil0" />
     <path
   style="fill:#009dad;fill-rule:nonzero"
   id="path17"
   d="m 389,774 c -8,0 -14,6 -14,14 0,4 1,7 4,10 2,3 6,4 10,4 l 0,0 c 8,0 14,-6 14,-14 0,-4 -1,-7 -4,-10 -3,-3 -6,-4 -10,-4 z m 0,25 0,0 0,0 0,0 z"
   class="fil0" />
     <g
   id="g19">
      <path
   style="fill:#009dad;fill-rule:nonzero"
   id="path21"
   d="m 538,653 c 0,0 0,0 0,0 8,0 14,-6 14,-14 0,-4 -1,-7 -4,-10 -2,-3 -6,-4 -10,-4 -8,0 -14,6 -14,13 0,4 1,8 4,11 3,2 6,4 10,4 z m 0,-3 0,0 0,0 z"
   class="fil0" />
     </g>
     <path
   style="fill:#009dad;fill-rule:nonzero"
   id="path23"
   d="m 509,774 c -8,0 -14,6 -14,14 0,3 1,7 4,10 2,2 6,4 10,4 7,0 13,-6 14,-14 0,-7 -7,-14 -14,-14 z"
   class="fil0" />
     <path
   style="fill:#009dad;fill-rule:nonzero"
   id="path25"
   d="m 539,745 c 0,0 -1,0 -1,0 -7,0 -13,6 -14,13 0,8 6,14 14,14 0,0 0,0 0,0 7,0 14,-6 14,-13 1,-7 -5,-14 -13,-14 z m -1,25 0,0 0,0 0,0 0,0 z"
   class="fil0" />
     <path
   style="fill:#009dad;fill-rule:nonzero"
   id="path27"
   d="m 449,593 c 0,0 0,0 0,0 7,0 14,-6 14,-14 0,-3 -2,-7 -4,-10 -3,-2 -7,-4 -10,-4 -8,0 -14,6 -14,14 0,3 1,7 4,9 2,3 6,5 10,5 z m 0,-3 0,0 0,0 0,0 z"
   class="fil0" />
     <path
   style="fill:#009dad;fill-rule:nonzero"
   id="path29"
   d="m 329,685 0,0 c -8,0 -14,6 -14,14 0,3 2,7 4,9 3,3 7,5 10,5 l 0,0 c 4,-1 7,-2 10,-5 3,-2 4,-6 4,-10 0,-7 -6,-13 -14,-13 z m 0,25 0,0 0,0 0,0 z"
   class="fil0" />
     <path
   style="fill:#009dad;fill-rule:nonzero"
   id="path31"
   d="m 329,715 c -8,0 -13,6 -13,13 0,4 1,7 3,10 3,2 6,4 10,4 l 0,0 c 8,0 14,-6 14,-14 -1,-7 -6,-13 -14,-13 z m 0,24 0,0 0,0 0,0 z"
   class="fil0" />
     <g
   id="g33">
      <path
   style="fill:#009dad;fill-rule:nonzero"
   id="path35"
   d="m 359,623 0,0 c 8,0 14,-6 14,-14 0,-7 -6,-13 -14,-13 -7,0 -13,5 -13,13 0,4 1,7 4,10 2,2 6,4 9,4 z m 0,-3 0,0 0,0 z"
   class="fil0" />
     </g>
     <path
   style="fill:#009dad;fill-rule:nonzero"
   id="path37"
   d="m 478,592 0,0 c 8,0 14,-5 14,-13 0,-7 -6,-13 -14,-13 -7,0 -13,5 -13,13 0,3 1,7 4,9 2,3 6,4 9,4 z"
   class="fil0" />
     <g
   id="g39">
      <path
   style="fill:#009dad;fill-rule:nonzero"
   id="path41"
   d="m 329,682 0,0 c 4,0 7,-1 10,-4 2,-3 4,-6 4,-10 0,-7 -6,-13 -14,-13 -8,0 -13,6 -13,13 0,4 1,7 3,10 3,2 6,4 10,4 z m 0,-3 0,0 0,0 z"
   class="fil0" />
     </g>
     <path
   style="fill:#009dad;fill-rule:nonzero"
   id="path43"
   d="m 418,593 0,0 c 4,0 8,-2 10,-4 3,-3 4,-6 4,-10 0,-8 -6,-14 -14,-14 -3,0 -7,2 -9,4 -3,3 -4,7 -4,10 0,8 6,13 13,14 z m 0,-3 0,0 0,0 0,0 z"
   class="fil0" />
     <g
   id="g45">
      <path
   style="fill:#009dad;fill-rule:nonzero"
   id="path47"
   d="m 449,805 c -7,0 -13,6 -14,13 0,4 2,7 4,10 3,2 6,4 10,4 l 0,0 c 7,0 13,-6 13,-13 0,-4 -1,-7 -4,-10 -2,-2 -5,-4 -9,-4 z m 0,24 0,0 0,0 z"
   class="fil0" />
     </g>
     <g
   id="g49">
      <path
   style="fill:#009dad;fill-rule:nonzero"
   id="path51"
   d="m 568,685 c -7,0 -13,6 -13,14 0,3 1,7 4,9 2,3 6,4 9,4 l 1,0 c 7,0 13,-6 13,-13 0,-4 -2,-7 -4,-10 -3,-2 -6,-4 -10,-4 z m 0,24 0,0 0,0 z"
   class="fil0" />
     </g>
     <path
   style="fill:#009dad;fill-rule:nonzero"
   id="path53"
   d="m 359,775 c -3,0 -7,1 -9,4 -3,2 -4,6 -4,9 0,7 6,13 13,13 l 0,0 c 7,0 14,-6 14,-13 0,-3 -2,-7 -4,-9 -3,-3 -6,-4 -10,-4 z m 0,24 0,0 0,0 0,0 z"
   class="fil0" />
     <path
   style="fill:#009dad;fill-rule:nonzero"
   id="path55"
   d="m 568,682 0,0 c 4,0 7,-2 10,-4 2,-3 4,-6 4,-10 0,-7 -6,-13 -14,-13 -7,0 -13,6 -13,13 0,4 2,7 4,10 3,2 6,4 9,4 z"
   class="fil0" />
     <path
   style="fill:#009dad;fill-rule:nonzero"
   id="path57"
   d="m 538,622 c 0,0 0,0 0,0 7,0 13,-6 13,-13 0,-3 -1,-6 -3,-9 -3,-2 -6,-4 -10,-4 -7,0 -13,6 -13,13 0,3 1,7 4,9 2,3 5,4 9,4 z m 0,-2 0,0 0,0 0,0 z"
   class="fil0" />
     <path
   style="fill:#009dad;fill-rule:nonzero"
   id="path59"
   d="m 418,805 c -7,0 -13,6 -13,13 0,3 2,7 4,9 2,3 6,4 9,5 0,0 0,0 0,0 8,0 14,-6 14,-14 0,-7 -6,-13 -14,-13 z m 0,24 0,0 0,0 0,0 z"
   class="fil0" />
     <path
   style="fill:#009dad;fill-rule:nonzero"
   id="path61"
   d="m 568,715 c -7,0 -13,6 -13,13 0,7 6,13 13,13 l 1,0 c 3,0 6,-1 9,-4 2,-2 4,-6 3,-9 0,-7 -6,-13 -13,-13 z m 0,24 0,0 0,0 0,0 z"
   class="fil0" />
     <g
   id="g63">
      <path
   style="fill:#009dad;fill-rule:nonzero"
   id="path65"
   d="m 329,652 c 0,0 0,0 0,0 7,0 13,-6 13,-13 0,-7 -6,-13 -13,-13 -7,0 -13,5 -13,12 0,4 1,7 4,10 2,2 6,4 9,4 z m 0,-3 0,0 0,0 z"
   class="fil0" />
     </g>
     <path
   style="fill:#009dad;fill-rule:nonzero"
   id="path67"
   d="m 478,805 c -3,0 -7,2 -9,4 -2,3 -4,6 -4,9 0,7 6,13 13,13 l 0,0 c 8,0 13,-6 13,-13 0,-7 -6,-13 -13,-13 z m 0,24 0,0 0,0 0,0 z"
   class="fil0" />
     <g
   id="g69">
      <path
   style="fill:#009dad;fill-rule:nonzero"
   id="path71"
   d="m 389,592 0,0 0,0 c 7,0 13,-6 13,-13 0,-7 -6,-13 -13,-13 -7,0 -13,6 -13,13 0,3 1,6 3,9 3,3 6,4 10,4 z m 0,-3 0,0 0,0 z"
   class="fil0" />
     </g>
     <path
   style="fill:#009dad;fill-rule:nonzero"
   id="path73"
   d="m 329,746 c -7,0 -13,5 -13,12 0,8 6,13 13,13 l 0,0 c 7,0 13,-5 13,-12 0,-4 -1,-7 -4,-10 -2,-2 -5,-3 -9,-3 z m 0,22 0,0 0,0 0,0 z"
   class="fil0" />
     <path
   style="fill:#009dad;fill-rule:nonzero"
   id="path75"
   d="m 538,775 c -7,0 -13,6 -13,13 0,3 2,7 4,9 2,2 6,4 9,4 l 0,0 c 7,0 13,-6 13,-13 0,-7 -6,-13 -13,-13 z"
   class="fil0" />
     <path
   style="fill:#009dad;fill-rule:nonzero"
   id="path77"
   d="m 508,592 1,0 c 7,0 12,-6 12,-13 0,-7 -5,-13 -12,-13 -8,0 -13,6 -13,13 0,3 1,7 3,9 3,2 6,4 9,4 z m 1,-3 0,0 0,0 0,0 z"
   class="fil0" />
     <path
   style="fill:#009dad;fill-rule:nonzero"
   id="path79"
   d="m 389,806 c -7,0 -13,5 -13,12 0,7 6,13 13,13 l 0,0 c 3,0 6,-2 9,-4 2,-2 3,-5 3,-9 0,-7 -5,-12 -12,-12 z m 0,22 0,0 0,0 0,0 z"
   class="fil0" />
     <g
   id="g81">
      <path
   style="fill:#009dad;fill-rule:nonzero"
   id="path83"
   d="m 568,651 0,0 c 7,0 13,-5 13,-12 0,-3 -1,-7 -4,-9 -2,-2 -5,-4 -9,-4 -6,0 -12,6 -12,13 0,7 5,12 12,12 z m 0,-2 0,0 0,0 z"
   class="fil0" />
     </g>
     <path
   style="fill:#009dad;fill-rule:nonzero"
   id="path85"
   d="m 569,746 c -7,0 -12,5 -13,12 0,3 1,6 3,9 2,2 6,4 9,4 0,0 0,0 1,0 6,0 11,-5 12,-12 0,-3 -1,-6 -3,-8 -2,-3 -5,-4 -9,-5 z m 0,22 0,0 0,0 0,0 z"
   class="fil0" />
     <path
   style="fill:#009dad;fill-rule:nonzero"
   id="path87"
   d="m 508,806 0,0 c -6,0 -12,6 -12,12 0,4 2,7 4,9 2,2 5,4 9,4 l 0,0 c 3,0 6,-2 8,-4 3,-2 4,-6 4,-9 0,-6 -6,-12 -13,-12 z m 1,22 0,0 0,0 0,0 z"
   class="fil0" />
     <path
   style="fill:#009dad;fill-rule:nonzero"
   id="path89"
   d="m 359,591 c 0,0 0,0 0,0 7,0 12,-5 12,-12 0,-6 -5,-12 -12,-12 -6,0 -11,5 -12,12 0,6 5,12 12,12 z m 0,-3 0,0 0,0 0,0 z"
   class="fil0" />
     <path
   style="fill:#009dad;fill-rule:nonzero"
   id="path91"
   d="m 329,621 c 0,0 0,0 0,0 7,0 12,-5 12,-12 0,-6 -5,-12 -12,-12 -7,0 -12,6 -12,12 0,7 5,12 12,12 z m 0,-3 0,0 0,0 0,0 z"
   class="fil0" />
     <path
   style="fill:#009dad;fill-rule:nonzero"
   id="path93"
   d="m 302,687 c -7,0 -12,5 -12,11 0,7 5,12 11,13 0,0 0,0 0,0 7,0 12,-6 12,-12 0,-7 -5,-12 -11,-12 z m -1,21 0,0 0,0 0,0 z"
   class="fil0" />
     <path
   style="fill:#009dad;fill-rule:nonzero"
   id="path95"
   d="m 448,564 c 0,0 1,0 1,0 6,0 12,-5 12,-11 0,-7 -5,-12 -12,-12 -7,0 -12,5 -12,11 0,6 5,12 11,12 z m 1,-2 0,0 0,0 0,0 z"
   class="fil0" />
     <g
   id="g97">
      <path
   style="fill:#009dad;fill-rule:nonzero"
   id="path99"
   d="m 301,680 c 0,0 0,0 1,0 3,0 6,-1 8,-3 2,-3 3,-6 3,-9 0,-6 -5,-11 -12,-11 -6,0 -11,5 -11,11 0,7 5,12 11,12 z m 1,-3 0,0 0,0 z"
   class="fil0" />
     </g>
     <path
   style="fill:#009dad;fill-rule:nonzero"
   id="path101"
   d="m 418,564 c 0,0 0,0 0,0 l 1,0 c 6,0 11,-5 11,-12 0,-6 -5,-11 -12,-11 -6,0 -11,5 -11,11 0,6 5,12 11,12 z m 0,-3 0,0 0,0 0,0 z"
   class="fil0" />
     <path
   style="fill:#009dad;fill-rule:nonzero"
   id="path103"
   d="m 568,621 c 0,0 0,0 0,0 4,0 6,-2 9,-4 2,-2 3,-5 3,-8 0,-6 -5,-11 -12,-11 -6,0 -11,5 -11,11 0,7 5,11 11,12 z m 0,-3 0,0 0,0 0,0 z"
   class="fil0" />
     <path
   style="fill:#009dad;fill-rule:nonzero"
   id="path105"
   d="m 359,807 c -6,0 -11,5 -11,11 0,3 1,6 3,8 2,2 5,4 8,4 l 0,0 c 7,0 12,-5 12,-12 0,-6 -5,-11 -12,-11 z m 0,20 0,0 0,0 0,0 z"
   class="fil0" />
     <path
   style="fill:#009dad;fill-rule:nonzero"
   id="path107"
   d="m 329,776 c -6,0 -11,5 -12,12 0,3 1,6 4,8 2,2 5,4 8,4 0,0 0,0 0,0 6,0 12,-6 12,-12 0,-3 -1,-6 -4,-8 -2,-2 -5,-4 -8,-4 z m 0,21 0,0 0,0 0,0 z"
   class="fil0" />
     <path
   style="fill:#009dad;fill-rule:nonzero"
   id="path109"
   d="m 301,717 c -6,0 -11,5 -11,11 0,3 1,6 3,8 2,2 5,4 8,4 0,0 1,0 1,0 6,0 11,-6 11,-12 0,-6 -5,-11 -12,-11 z m 1,20 0,0 0,0 0,0 z"
   class="fil0" />
     <path
   style="fill:#009dad;fill-rule:nonzero"
   id="path111"
   d="m 478,564 0,0 c 3,0 6,-1 9,-4 2,-2 3,-5 3,-8 0,-6 -5,-11 -12,-11 l 0,0 c -6,0 -11,5 -11,11 0,3 1,6 3,9 2,2 5,3 8,3 z m 0,-3 0,0 0,0 0,0 z"
   class="fil0" />
     <path
   style="fill:#009dad;fill-rule:nonzero"
   id="path113"
   d="m 538,591 c 0,0 0,0 0,0 6,0 12,-6 12,-12 0,-3 -1,-6 -4,-8 -2,-2 -5,-4 -8,-4 -6,0 -11,5 -12,12 0,3 2,6 4,8 2,2 5,4 8,4 z m 0,-3 0,0 0,0 0,0 z"
   class="fil0" />
     <path
   style="fill:#009dad;fill-rule:nonzero"
   id="path115"
   d="m 596,687 c -6,0 -11,5 -11,12 0,3 1,5 3,8 2,2 5,3 8,3 0,0 0,0 0,0 6,0 11,-5 11,-11 0,-3 -1,-6 -3,-8 -2,-2 -5,-4 -8,-4 z m 0,20 0,0 0,0 0,0 z"
   class="fil0" />
     <path
   style="fill:#009dad;fill-rule:nonzero"
   id="path117"
   d="m 449,835 c -6,0 -11,5 -11,11 0,6 5,11 11,11 l 0,0 c 6,0 11,-5 11,-11 0,-3 -1,-6 -3,-8 -2,-2 -5,-3 -8,-3 z m 0,19 0,0 0,0 0,0 z"
   class="fil0" />
     <path
   style="fill:#009dad;fill-rule:nonzero"
   id="path119"
   d="m 596,679 0,0 c 6,0 11,-4 11,-10 0,-3 -1,-6 -3,-8 -2,-2 -5,-4 -8,-4 -6,0 -11,5 -11,11 0,3 1,6 3,8 2,2 5,3 8,3 z m 0,-2 0,0 0,0 0,0 z"
   class="fil0" />
     <path
   style="fill:#009dad;fill-rule:nonzero"
   id="path121"
   d="m 538,807 c -6,0 -11,5 -11,11 0,3 1,6 3,8 2,2 5,3 8,3 0,0 0,0 0,0 6,0 11,-4 11,-10 0,-3 -1,-6 -3,-8 -2,-2 -5,-4 -8,-4 z m 0,20 0,0 0,0 0,0 z"
   class="fil0" />
     <path
   style="fill:#009dad;fill-rule:nonzero"
   id="path123"
   d="m 301,650 0,0 c 6,0 11,-5 12,-11 0,-3 -1,-6 -4,-8 -2,-2 -5,-3 -8,-3 -5,0 -10,5 -11,11 0,2 1,5 4,8 2,2 5,3 7,3 z m 0,-3 0,0 0,0 0,0 z"
   class="fil0" />
     <path
   style="fill:#009dad;fill-rule:nonzero"
   id="path125"
   d="m 568,777 c -6,0 -11,5 -11,11 0,3 1,6 4,8 2,2 5,3 7,3 0,0 1,0 1,0 6,0 11,-5 11,-11 0,-3 -2,-6 -4,-8 -2,-2 -5,-3 -8,-3 z m 0,19 0,0 0,0 0,0 z"
   class="fil0" />
     <path
   style="fill:#009dad;fill-rule:nonzero"
   id="path127"
   d="m 418,835 c -5,0 -11,5 -11,11 0,3 2,5 4,8 2,2 5,3 8,3 0,0 0,0 0,0 6,0 10,-5 11,-11 0,-3 -2,-6 -4,-8 -2,-2 -5,-3 -8,-3 z"
   class="fil0" />
     <path
   style="fill:#009dad;fill-rule:nonzero"
   id="path129"
   d="m 389,563 c 0,0 0,0 0,0 6,0 11,-4 11,-10 0,-3 -1,-6 -3,-8 -2,-2 -5,-4 -8,-4 -6,0 -11,5 -11,11 0,3 1,6 3,8 2,2 5,3 8,3 z m 0,-2 0,0 0,0 0,0 z"
   class="fil0" />
     <path
   style="fill:#009dad;fill-rule:nonzero"
   id="path131"
   d="m 478,835 c -3,0 -5,1 -8,3 -2,2 -3,5 -3,8 0,6 5,11 11,11 l 0,0 c 3,0 6,-1 8,-3 2,-3 3,-5 3,-8 0,-6 -5,-11 -11,-11 z m 0,19 0,0 0,0 0,0 z"
   class="fil0" />
     <path
   style="fill:#009dad;fill-rule:nonzero"
   id="path133"
   d="m 596,717 c -3,0 -6,2 -8,4 -2,2 -3,5 -3,7 0,6 5,11 11,11 0,0 0,0 0,0 3,0 6,-1 8,-3 2,-2 3,-5 3,-8 0,-6 -5,-11 -11,-11 z m 0,19 0,0 0,0 0,0 0,0 z"
   class="fil0" />
     <path
   style="fill:#009dad;fill-rule:nonzero"
   id="path135"
   d="m 301,748 c -5,0 -10,4 -10,10 0,3 1,6 3,8 2,2 5,3 8,3 l 0,0 c 5,0 10,-5 10,-10 0,-6 -4,-11 -11,-11 z m 1,19 0,0 0,0 0,0 z"
   class="fil0" />
     <path
   style="fill:#009dad;fill-rule:nonzero"
   id="path137"
   d="m 509,563 c 5,0 10,-5 10,-11 0,-5 -4,-10 -10,-10 -6,0 -11,4 -11,10 0,3 1,6 3,8 2,2 5,3 8,3 z"
   class="fil0" />
     <path
   style="fill:#009dad;fill-rule:nonzero"
   id="path139"
   d="m 329,589 0,0 c 6,0 11,-4 11,-10 0,-3 -2,-5 -4,-7 -1,-2 -4,-3 -7,-3 -3,0 -5,1 -7,3 -2,2 -3,4 -3,7 0,6 4,10 10,10 z m 0,-2 0,0 0,0 0,0 z"
   class="fil0" />
     <path
   style="fill:#009dad;fill-rule:nonzero"
   id="path141"
   d="m 389,835 c -3,0 -5,2 -7,4 -2,2 -4,4 -4,7 0,6 5,10 11,10 0,0 0,0 0,0 3,0 6,-1 7,-3 2,-2 3,-5 3,-7 0,-6 -4,-10 -10,-11 z m 0,19 0,0 0,0 0,0 z"
   class="fil0" />
     <path
   style="fill:#009dad;fill-rule:nonzero"
   id="path143"
   d="m 596,649 c 0,0 0,0 0,0 6,0 10,-4 10,-10 1,-3 0,-5 -2,-7 -2,-2 -5,-4 -8,-4 -6,0 -10,5 -10,10 -1,3 0,6 2,8 2,2 5,3 8,3 z m 0,-3 0,0 0,1 0,-1 z"
   class="fil0" />
     <path
   style="fill:#009dad;fill-rule:nonzero"
   id="path145"
   d="m 509,836 c -6,0 -10,4 -11,10 0,2 1,5 3,7 2,2 5,3 8,3 0,0 0,0 0,0 5,0 10,-5 10,-10 0,-6 -5,-10 -10,-10 z m 0,17 0,0 0,0 0,0 z"
   class="fil0" />
     <path
   style="fill:#009dad;fill-rule:nonzero"
   id="path147"
   d="m 596,748 c -5,0 -10,5 -10,10 0,3 1,6 3,8 2,2 4,3 7,3 0,0 0,0 0,0 6,-1 10,-5 10,-11 0,-5 -5,-10 -10,-10 z m 0,18 0,0 0,0 0,0 z"
   class="fil0" />
     <path
   style="fill:#009dad;fill-rule:nonzero"
   id="path149"
   d="m 329,809 c -5,0 -10,4 -10,9 0,6 4,10 10,10 0,0 0,0 0,0 6,0 10,-4 10,-10 0,-5 -4,-9 -10,-9 z m 0,16 0,0 0,0 0,0 z"
   class="fil0" />
     <path
   style="fill:#009dad;fill-rule:nonzero"
   id="path151"
   d="m 359,562 c 0,0 0,0 0,0 3,0 6,-1 7,-3 2,-1 3,-4 3,-7 0,-5 -4,-9 -10,-10 -2,0 -5,1 -7,3 -2,2 -3,5 -3,7 0,6 5,10 10,10 z m 0,-2 0,0 0,0 0,0 z"
   class="fil0" />
     <path
   style="fill:#009dad;fill-rule:nonzero"
   id="path153"
   d="m 301,619 c 0,0 0,0 0,0 3,0 6,-1 8,-3 1,-2 2,-4 2,-7 0,-5 -4,-10 -9,-10 -3,0 -6,1 -8,3 -1,2 -2,5 -2,7 0,6 4,10 9,10 z m 1,-3 0,0 0,0 0,0 z"
   class="fil0" />
     <path
   style="fill:#009dad;fill-rule:nonzero"
   id="path155"
   d="m 568,589 c 0,0 1,0 1,0 5,0 9,-5 9,-10 0,-6 -4,-10 -10,-10 -5,0 -9,5 -9,10 0,6 4,10 9,10 z m 0,-3 0,0 0,0 0,0 z"
   class="fil0" />
     <g
   id="g157">
      <path
   style="fill:#009dad;fill-rule:nonzero"
   id="path159"
   d="m 301,778 c -5,1 -9,5 -9,10 0,2 1,5 3,7 2,2 4,3 6,3 l 1,0 c 2,0 4,-1 6,-3 2,-2 3,-5 3,-7 0,-5 -4,-10 -10,-10 z m 1,17 0,0 0,0 z"
   class="fil0" />
     </g>
     <path
   style="fill:#009dad;fill-rule:nonzero"
   id="path161"
   d="m 538,562 c 0,0 0,0 0,0 5,0 10,-4 10,-9 0,-3 -1,-5 -3,-7 -2,-2 -4,-3 -7,-3 -5,0 -9,4 -9,9 -1,2 0,5 2,7 2,2 4,3 7,3 z m 0,-3 0,0 0,0 0,0 0,0 z"
   class="fil0" />
     <path
   style="fill:#009dad;fill-rule:nonzero"
   id="path163"
   d="m 448,536 c 1,0 1,0 1,0 5,0 9,-3 9,-8 0,-3 -1,-6 -2,-7 -2,-2 -4,-3 -7,-3 -5,0 -9,4 -9,9 0,5 3,9 8,9 z m 1,-3 0,0 0,1 0,-1 z"
   class="fil0" />
     <path
   style="fill:#009dad;fill-rule:nonzero"
   id="path165"
   d="m 568,809 c -5,0 -9,4 -9,9 0,5 4,9 9,9 0,1 0,1 0,1 6,0 9,-4 10,-9 0,-3 -1,-5 -3,-7 -1,-2 -4,-3 -7,-3 z m 0,16 0,0 0,0 0,0 z"
   class="fil0" />
     <path
   style="fill:#009dad;fill-rule:nonzero"
   id="path167"
   d="m 276,689 c -5,0 -9,4 -9,9 0,3 1,5 2,7 2,2 4,3 7,3 l 0,0 c 5,0 9,-4 9,-9 0,-3 0,-5 -2,-7 -2,-2 -4,-3 -7,-3 z m 0,16 0,0 0,0 0,0 z"
   class="fil0" />
     <path
   style="fill:#009dad;fill-rule:nonzero"
   id="path169"
   d="m 359,837 c -5,0 -9,4 -9,9 0,5 4,9 9,9 0,0 0,0 0,0 5,0 9,-4 10,-9 0,-5 -4,-9 -10,-9 z m 0,15 0,0 0,0 0,0 0,0 z"
   class="fil0" />
     <path
   style="fill:#009dad;fill-rule:nonzero"
   id="path171"
   d="m 596,618 c 0,0 0,0 0,0 5,0 9,-3 9,-8 0,-3 -1,-5 -2,-7 -2,-2 -4,-3 -7,-3 -5,0 -9,4 -9,9 0,5 4,9 9,9 z m 0,-2 0,0 0,0 0,0 z"
   class="fil0" />
     <path
   style="fill:#009dad;fill-rule:nonzero"
   id="path173"
   d="m 276,677 c 0,0 0,0 0,0 5,0 9,-4 9,-9 0,-2 -1,-4 -2,-6 -2,-2 -4,-3 -7,-3 -5,0 -9,4 -9,9 0,3 1,5 3,7 1,1 4,2 6,2 z m 0,-2 0,0 0,0 0,0 0,0 z"
   class="fil0" />
     <path
   style="fill:#009dad;fill-rule:nonzero"
   id="path175"
   d="m 418,536 c 0,0 0,0 0,0 l 1,0 c 4,0 8,-4 9,-9 0,-2 -1,-5 -3,-6 -2,-2 -4,-3 -7,-3 -4,0 -8,4 -9,9 0,2 1,4 3,6 1,2 4,3 6,3 z m 0,-3 0,0 0,0 0,0 z"
   class="fil0" />
     <path
   style="fill:#009dad;fill-rule:nonzero"
   id="path177"
   d="m 538,837 c -2,0 -4,1 -6,3 -2,2 -3,4 -3,6 0,5 4,9 9,9 0,0 0,0 0,0 2,0 5,-1 6,-3 2,-2 3,-4 3,-6 0,-5 -4,-9 -9,-9 z m 0,15 0,0 0,0 0,0 z"
   class="fil0" />
     <path
   style="fill:#009dad;fill-rule:nonzero"
   id="path179"
   d="m 596,779 c -5,0 -9,4 -9,9 0,5 4,9 9,9 0,0 0,0 0,0 5,0 9,-4 9,-9 0,-4 -4,-9 -9,-9 z m 0,15 0,0 0,0 0,0 z"
   class="fil0" />
     <path
   style="fill:#009dad;fill-rule:nonzero"
   id="path181"
   d="m 478,536 0,0 c 3,0 5,-1 7,-3 1,-1 2,-4 2,-6 0,-5 -4,-9 -9,-9 -2,0 -4,1 -6,3 -2,2 -3,4 -3,6 0,5 5,9 9,9 z m 0,-3 0,0 0,0 0,0 z"
   class="fil0" />
     <path
   style="fill:#009dad;fill-rule:nonzero"
   id="path183"
   d="m 276,719 c -5,0 -9,4 -9,9 0,2 1,5 3,6 1,2 4,3 6,3 0,0 0,0 0,0 5,0 9,-4 9,-9 0,-2 -1,-4 -2,-6 -2,-2 -4,-3 -7,-3 z m 0,15 0,0 0,0 0,0 z"
   class="fil0" />
     <path
   style="fill:#009dad;fill-rule:nonzero"
   id="path185"
   d="m 419,879 c 4,0 8,-4 8,-8 0,-5 -4,-9 -9,-9 -4,0 -8,4 -8,8 0,3 1,5 3,6 1,2 3,3 5,3 0,0 1,0 1,0 z m 0,-3 0,0 0,0 0,0 z"
   class="fil0" />
     <path
   style="fill:#009dad;fill-rule:nonzero"
   id="path187"
   d="m 621,677 0,0 c 4,0 8,-4 8,-9 0,-4 -4,-8 -8,-8 -5,0 -9,4 -9,8 0,5 4,9 9,9 z"
   class="fil0" />
     <g
   id="g189">
      <path
   style="fill:#009dad;fill-rule:nonzero"
   id="path191"
   d="m 620,690 c -4,0 -8,4 -8,8 0,3 1,5 3,7 1,1 3,2 6,2 l 0,0 c 2,0 4,-1 6,-2 1,-2 2,-4 2,-6 0,-5 -4,-9 -9,-9 z m 1,14 0,0 0,0 z"
   class="fil0" />
     </g>
     <path
   style="fill:#009dad;fill-rule:nonzero"
   id="path193"
   d="m 449,879 c 2,0 4,-1 6,-3 1,-1 2,-3 2,-6 0,-4 -4,-8 -8,-8 -3,0 -5,1 -6,3 -2,1 -3,4 -3,6 1,4 4,8 9,8 l 0,0 z"
   class="fil0" />
     <g
   id="g195">
      <path
   style="fill:#009dad;fill-rule:nonzero"
   id="path197"
   d="m 276,647 c 0,0 0,0 0,0 3,0 5,-1 6,-2 2,-2 3,-4 3,-7 -1,-4 -4,-8 -9,-8 -4,1 -8,4 -8,9 0,2 1,4 2,6 2,1 4,2 6,2 z m 0,-3 0,0 0,0 z"
   class="fil0" />
     </g>
     <path
   style="fill:#009dad;fill-rule:nonzero"
   id="path199"
   d="m 389,535 0,0 c 2,0 4,-1 6,-2 1,-2 2,-4 2,-6 0,-5 -3,-8 -8,-8 -2,0 -5,1 -6,2 -2,2 -2,4 -2,6 0,5 3,8 8,8 z m 0,-2 0,0 0,0 0,0 z"
   class="fil0" />
     <path
   style="fill:#009dad;fill-rule:nonzero"
   id="path201"
   d="m 329,561 c 0,0 0,0 0,0 4,0 8,-4 8,-8 0,-2 0,-4 -2,-6 -1,-2 -3,-3 -6,-3 -4,0 -8,4 -8,8 0,2 0,4 2,6 1,1 3,2 6,3 z m 0,-3 0,0 0,0 0,0 z"
   class="fil0" />
     <path
   style="fill:#009dad;fill-rule:nonzero"
   id="path203"
   d="m 301,587 c 0,0 0,0 1,0 4,0 8,-4 8,-8 0,-4 -4,-8 -9,-8 -4,0 -8,4 -8,8 0,4 4,8 8,8 z m 1,-3 0,0 0,0 0,1 0,-1 z"
   class="fil0" />
     <path
   style="fill:#009dad;fill-rule:nonzero"
   id="path205"
   d="m 508,535 c 0,0 1,0 1,0 4,0 8,-3 8,-8 0,-4 -4,-8 -8,-8 -5,0 -8,4 -9,8 0,4 4,8 8,8 z m 1,-3 0,0 0,0 0,0 z"
   class="fil0" />
     <g
   id="g207">
      <path
   style="fill:#009dad;fill-rule:nonzero"
   id="path209"
   d="m 478,879 c 5,0 8,-4 8,-9 0,-4 -3,-8 -8,-8 -2,0 -4,1 -5,3 -2,2 -3,4 -3,6 0,4 4,8 8,8 0,0 0,0 0,0 z m 0,-3 0,0 0,0 z"
   class="fil0" />
     </g>
     <path
   style="fill:#009dad;fill-rule:nonzero"
   id="path211"
   d="m 276,750 c -4,0 -8,4 -8,8 0,2 1,4 2,6 2,2 4,3 6,3 0,0 0,0 0,0 4,0 8,-4 8,-8 0,-5 -3,-9 -8,-9 z m 0,14 0,0 0,0 0,0 z"
   class="fil0" />
     <path
   style="fill:#009dad;fill-rule:nonzero"
   id="path213"
   d="m 621,720 c -5,0 -8,4 -9,8 0,4 4,8 8,8 l 1,0 c 4,0 8,-3 8,-8 0,-2 -1,-4 -3,-5 -1,-2 -3,-3 -5,-3 z m 0,14 0,0 0,0 0,0 z"
   class="fil0" />
     <path
   style="fill:#009dad;fill-rule:nonzero"
   id="path215"
   d="m 389,863 c -4,0 -8,4 -8,8 0,3 4,7 8,7 0,0 0,0 0,0 2,0 4,-1 5,-2 2,-2 2,-4 2,-6 0,-4 -3,-7 -7,-7 z"
   class="fil0" />
     <path
   style="fill:#009dad;fill-rule:nonzero"
   id="path217"
   d="m 329,838 c -4,0 -7,4 -7,7 -1,2 0,4 2,6 1,1 3,2 5,2 l 0,0 c 4,0 7,-3 8,-7 0,-4 -4,-7 -8,-8 z"
   class="fil0" />
     <path
   style="fill:#009dad;fill-rule:nonzero"
   id="path219"
   d="m 596,586 c 0,0 0,0 0,0 4,0 8,-3 7,-7 0,-4 -3,-7 -7,-8 -2,0 -4,1 -5,3 -2,1 -3,3 -2,5 0,4 3,7 7,7 z m 0,-2 0,0 0,0 0,0 z"
   class="fil0" />
     <path
   style="fill:#009dad;fill-rule:nonzero"
   id="path221"
   d="m 302,811 c 0,0 -1,0 -1,0 -3,0 -7,3 -7,7 0,2 0,4 2,5 1,2 3,3 5,3 0,0 0,0 0,0 2,0 4,-1 6,-2 1,-2 2,-4 2,-5 0,-5 -3,-8 -7,-8 z m -1,12 0,0 0,0 0,0 z"
   class="fil0" />
     <path
   style="fill:#009dad;fill-rule:nonzero"
   id="path223"
   d="m 568,560 c 0,0 0,0 0,0 2,0 4,-1 6,-2 1,-2 2,-4 2,-6 0,-4 -3,-7 -8,-7 l 0,0 c -4,0 -7,3 -7,7 0,2 0,4 2,5 1,2 3,3 5,3 z m 0,-3 0,0 0,0 0,0 z"
   class="fil0" />
     <path
   style="fill:#009dad;fill-rule:nonzero"
   id="path225"
   d="m 620,646 c 0,0 1,0 1,0 2,0 4,-1 5,-2 1,-2 2,-4 2,-5 0,-4 -4,-8 -8,-8 -3,0 -7,4 -7,8 0,4 3,7 7,7 z m 1,-2 0,0 0,0 0,0 z"
   class="fil0" />
     <path
   style="fill:#009dad;fill-rule:nonzero"
   id="path227"
   d="m 276,616 c 0,0 0,0 0,0 4,0 7,-2 7,-7 0,-4 -2,-6 -7,-7 -4,0 -7,3 -7,7 0,2 1,4 2,5 1,2 3,2 5,2 z m 0,-3 0,0 0,1 0,-1 z"
   class="fil0" />
     <path
   style="fill:#009dad;fill-rule:nonzero"
   id="path229"
   d="m 620,751 0,0 c -4,1 -6,3 -6,7 -1,2 0,4 1,5 2,2 3,3 5,3 0,0 1,0 1,0 4,0 7,-3 7,-7 0,-2 -1,-4 -2,-6 -2,-1 -3,-2 -6,-2 z m 1,12 0,0 0,0 0,0 z"
   class="fil0" />
     <path
   style="fill:#009dad;fill-rule:nonzero"
   id="path231"
   d="m 596,812 c -4,0 -6,2 -7,6 0,0 0,1 0,1 1,4 3,6 7,6 l 0,0 c 2,0 4,-1 5,-2 1,-1 2,-3 2,-5 0,-4 -3,-6 -7,-6 z"
   class="fil0" />
     <path
   style="fill:#009dad;fill-rule:nonzero"
   id="path233"
   d="m 508,863 c -1,0 -3,1 -4,2 -2,2 -2,4 -2,6 0,4 3,7 7,7 0,0 0,0 0,0 2,0 4,-1 5,-3 1,-1 2,-3 2,-5 -1,-4 -3,-6 -8,-7 z m 1,12 0,0 0,0 0,0 z"
   class="fil0" />
     <path
   style="fill:#009dad;fill-rule:nonzero"
   id="path235"
   d="m 359,534 c 0,0 0,0 1,0 3,0 6,-2 6,-7 0,-4 -2,-7 -7,-7 -4,0 -7,3 -7,7 0,2 1,4 2,5 2,1 3,2 5,2 z m 0,-3 0,0 0,0 0,0 z"
   class="fil0" />
     <path
   style="fill:#009dad;fill-rule:nonzero"
   id="path237"
   d="m 568,839 c -2,0 -3,1 -5,2 -1,1 -1,3 -1,5 0,4 3,7 6,7 0,0 0,0 0,0 4,0 7,-3 7,-7 0,0 0,0 0,-1 0,-4 -3,-6 -7,-6 z"
   class="fil0" />
     <path
   style="fill:#009dad;fill-rule:nonzero"
   id="path239"
   d="m 538,533 c 0,0 0,0 0,0 0,0 0,0 0,0 4,0 7,-2 7,-6 -1,-4 -3,-6 -7,-6 -4,0 -6,2 -6,6 0,4 2,6 6,6 z"
   class="fil0" />
     <path
   style="fill:#009dad;fill-rule:nonzero"
   id="path241"
   d="m 276,782 c -3,0 -6,2 -6,6 0,2 1,4 1,4 1,1 2,2 5,2 0,0 0,0 0,0 4,0 6,-2 7,-6 -1,-4 -3,-6 -7,-6 z m 0,10 0,0 0,0 0,0 z"
   class="fil0" />
     <path
   style="fill:#009dad;fill-rule:nonzero"
   id="path243"
   d="m 359,864 0,0 c -3,1 -6,3 -6,6 0,2 1,4 2,5 1,1 2,2 4,2 0,0 0,0 0,0 4,0 6,-3 7,-6 0,-1 0,-1 0,-1 -1,-4 -3,-6 -7,-6 z m 0,10 0,0 0,0 0,0 z"
   class="fil0" />
     <path
   style="fill:#009dad;fill-rule:nonzero"
   id="path245"
   d="m 620,615 c 0,0 0,1 0,1 1,0 1,-1 1,-1 3,0 6,-2 6,-6 0,-1 -1,-3 -2,-4 -1,-1 -3,-2 -4,-2 -4,0 -6,2 -7,6 0,3 2,6 6,6 z"
   class="fil0" />
    </g>
    <path
   style="fill:#009dad;fill-rule:nonzero"
   id="path247"
   d="m 484,891 c 0,-3 -3,-6 -6,-6 -3,0 -5,3 -5,6 0,3 2,5 5,5 3,0 6,-2 6,-5 z"
   class="fil0" />
    <path
   style="fill:#009dad;fill-rule:nonzero"
   id="path249"
   d="m 544,871 c 0,-3 -3,-6 -6,-6 -3,0 -5,3 -5,6 0,3 2,5 5,5 3,0 6,-2 6,-5 z"
   class="fil0" />
    <path
   style="fill:#009dad;fill-rule:nonzero"
   id="path251"
   d="m 454,891 c 0,-3 -2,-6 -5,-6 -3,0 -6,3 -6,6 0,3 3,5 6,5 3,0 5,-2 5,-5 z"
   class="fil0" />
    <path
   style="fill:#009dad;fill-rule:nonzero"
   id="path253"
   d="m 424,891 c 0,-3 -3,-6 -6,-6 -2,0 -5,3 -5,6 0,3 3,5 5,5 3,0 6,-2 6,-5 z"
   class="fil0" />
    <path
   style="fill:#009dad;fill-rule:nonzero"
   id="path255"
   d="m 624,788 c 0,-3 -2,-5 -5,-5 -3,0 -5,2 -5,5 0,3 2,6 5,6 3,0 5,-3 5,-6 z"
   class="fil0" />
    <path
   style="fill:#009dad;fill-rule:nonzero"
   id="path257"
   d="m 644,729 c 0,-3 -2,-6 -5,-6 -3,0 -6,3 -6,6 0,3 3,5 6,5 3,0 5,-2 5,-5 z"
   class="fil0" />
    <path
   style="fill:#009dad;fill-rule:nonzero"
   id="path259"
   d="m 644,699 c 0,-3 -2,-6 -5,-6 -3,0 -6,3 -6,6 0,3 3,5 6,5 3,0 5,-2 5,-5 z"
   class="fil0" />
    <path
   style="fill:#009dad;fill-rule:nonzero"
   id="path261"
   d="m 644,668 c 0,-3 -2,-5 -5,-5 -3,0 -6,2 -6,5 0,3 3,6 6,6 3,0 5,-3 5,-6 z"
   class="fil0" />
    <path
   style="fill:#009dad;fill-rule:nonzero"
   id="path263"
   d="m 484,507 c 0,-3 -3,-5 -6,-5 -3,0 -5,2 -5,5 0,3 2,6 5,6 3,0 6,-3 6,-6 z"
   class="fil0" />
    <path
   style="fill:#009dad;fill-rule:nonzero"
   id="path265"
   d="m 454,507 c 0,-3 -2,-5 -5,-5 -3,0 -6,2 -6,5 0,3 3,6 6,6 3,0 5,-3 5,-6 z"
   class="fil0" />
    <path
   style="fill:#009dad;fill-rule:nonzero"
   id="path267"
   d="m 424,507 c 0,-3 -3,-5 -6,-5 -2,0 -5,2 -5,5 0,3 3,6 5,6 3,0 6,-3 6,-6 z"
   class="fil0" />
    <path
   style="fill:#009dad;fill-rule:nonzero"
   id="path269"
   d="m 261,668 c 0,-3 -2,-5 -5,-5 -3,0 -6,2 -6,5 0,3 3,6 6,6 3,0 5,-3 5,-6 z"
   class="fil0" />
    <path
   style="fill:#009dad;fill-rule:nonzero"
   id="path271"
   d="m 261,698 c 0,-3 -2,-5 -5,-5 -3,0 -6,2 -6,5 0,3 3,6 6,6 3,0 5,-3 5,-6 z"
   class="fil0" />
    <path
   style="fill:#009dad;fill-rule:nonzero"
   id="path273"
   d="m 261,728 c 0,-3 -2,-5 -5,-5 -3,0 -6,2 -6,5 0,3 3,6 6,6 3,0 5,-3 5,-6 z"
   class="fil0" />
   </g>
   <path
   style="fill:#5b5b5b;fill-rule:nonzero"
   id="path275"
   d="m 768,582 16,0 0,16 7,0 c 10,0 19,3 27,7 8,4 14,10 18,18 4,7 6,16 6,26 0,10 -2,19 -7,27 -4,8 -11,14 -19,18 -8,4 -17,6 -28,6 l -4,0 0,21 -16,0 0,-21 -4,0 c -11,0 -20,-2 -28,-6 -8,-4 -15,-10 -19,-18 -5,-8 -7,-17 -7,-27 0,-10 2,-19 6,-26 5,-8 11,-14 18,-18 8,-4 17,-7 28,-7 l 6,0 0,-16 z m 0,30 0,0 -5,0 c -11,0 -20,3 -27,10 -6,6 -9,15 -9,27 0,12 3,21 10,28 7,7 16,10 29,10 l 2,0 0,-75 z m 16,75 0,0 2,0 c 13,0 22,-3 29,-10 7,-7 11,-16 11,-28 0,-12 -3,-21 -10,-27 -6,-7 -15,-10 -27,-10 l -5,0 0,75 z"
   class="fil1" />
   <path
   style="fill:#5b5b5b;fill-rule:nonzero"
   id="path277"
   d="m 928,719 -3,-14 -1,0 c -5,6 -10,11 -15,13 -5,2 -11,3 -19,3 -10,0 -18,-2 -23,-8 -6,-5 -9,-12 -9,-22 0,-20 16,-31 49,-32 l 18,-1 0,-6 c 0,-8 -2,-14 -6,-18 -3,-3 -8,-5 -16,-5 -9,0 -18,2 -29,7 l -5,-11 c 5,-3 11,-5 17,-7 6,-1 12,-2 18,-2 12,0 21,3 27,8 6,5 9,14 9,26 l 0,69 -12,0 z m -35,-11 0,0 c 10,0 18,-2 23,-7 5,-6 8,-13 8,-23 l 0,-9 -15,1 c -12,0 -21,2 -27,6 -5,3 -8,8 -8,15 0,6 2,10 5,13 4,3 8,4 14,4 z"
   class="fil1" />
   <path
   style="fill:#5b5b5b;fill-rule:nonzero"
   id="path279"
   d="m 1007,721 c -6,0 -12,-1 -18,-4 -5,-2 -10,-6 -14,-11 l -1,0 c 1,6 1,12 1,17 l 0,42 -15,0 0,-147 12,0 3,14 0,0 c 4,-6 9,-10 14,-13 5,-2 11,-3 18,-3 14,0 24,4 31,14 8,9 11,22 11,38 0,17 -3,30 -11,39 -7,10 -17,14 -31,14 z m -2,-92 0,0 c -10,0 -18,3 -22,8 -5,6 -8,15 -8,28 l 0,3 c 0,15 3,25 8,31 4,6 12,9 22,9 9,0 16,-3 21,-10 5,-7 8,-17 8,-30 0,-12 -3,-22 -8,-29 -5,-7 -12,-10 -21,-10 z"
   class="fil1" />
   <path
   style="fill:#5b5b5b;fill-rule:nonzero"
   id="path281"
   d="m 1125,704 3,-8 4,-11 28,-67 19,0 0,101 -13,0 0,-84 -2,6 -5,14 -27,64 -13,0 -26,-64 c -3,-9 -5,-15 -7,-20 l 0,84 -13,0 0,-101 18,0 27,64 c 3,7 5,14 7,22 z"
   class="fil1" />
   <path
   style="fill:#009dad;fill-rule:nonzero"
   id="path283"
   d="m 1202,658 c 0,-23 4,-41 11,-53 8,-12 21,-20 37,-24 13,-2 28,-5 45,-7 l 3,19 c -21,3 -35,5 -45,7 -9,2 -16,6 -21,12 -4,6 -7,15 -7,28 l 1,0 c 4,-5 8,-9 14,-12 6,-3 12,-4 18,-4 13,0 23,4 30,12 7,8 10,19 10,33 0,17 -4,30 -13,39 -8,9 -20,13 -35,13 -15,0 -27,-5 -35,-17 -9,-11 -13,-26 -13,-46 z m 49,45 0,0 c 17,0 25,-10 25,-32 0,-20 -8,-30 -22,-30 -4,0 -8,0 -12,2 -4,2 -7,4 -10,7 -4,3 -6,6 -8,9 0,15 3,26 7,33 5,8 12,11 20,11 z"
   class="fil0" />
   <path
   style="fill:#009dad;fill-rule:nonzero"
   id="path285"
   d="m 1337,617 0,52 c 0,6 -1,15 -2,27 l 52,-79 26,0 0,102 -21,0 0,-51 c 0,-3 1,-8 1,-14 0,-7 0,-11 1,-14 l -52,79 -26,0 0,-102 21,0 z"
   class="fil0" />
   <path
   style="fill:#009dad;fill-rule:nonzero"
   id="path287"
   d="m 1528,668 c 0,17 -4,30 -13,39 -9,9 -21,14 -36,14 -10,0 -18,-2 -25,-6 -8,-5 -13,-11 -17,-19 -4,-8 -6,-17 -6,-28 0,-17 4,-30 12,-39 9,-9 21,-14 37,-14 14,0 26,5 35,14 8,10 13,23 13,39 z m -75,0 0,0 c 0,24 9,35 26,35 18,0 26,-11 26,-35 0,-24 -8,-35 -26,-35 -9,0 -16,3 -20,9 -4,6 -6,15 -6,26 z"
   class="fil0" />
   <polygon
   style="fill:#5b5b5b;fill-rule:nonzero"
   id="polygon289"
   points="1585,719 1570,719 1570,631 1537,631 1537,618 1618,618 1618,631 1585,631 "
   class="fil1" />
   <path
   style="fill:#5b5b5b;fill-rule:nonzero"
   id="path291"
   d="m 1674,721 c -15,0 -27,-4 -36,-14 -8,-9 -13,-21 -13,-38 0,-16 4,-29 12,-39 8,-9 19,-14 33,-14 13,0 23,4 30,12 8,9 11,20 11,34 l 0,9 -70,0 c 1,12 4,21 9,27 6,7 14,10 24,10 11,0 22,-3 33,-7 l 0,14 c -6,2 -11,4 -16,5 -4,1 -10,1 -17,1 z m -4,-92 0,0 c -8,0 -15,2 -20,8 -5,5 -8,12 -8,22 l 53,0 c 0,-10 -2,-17 -7,-23 -4,-5 -10,-7 -18,-7 z"
   class="fil1" />
   <path
   style="fill:#5b5b5b;fill-rule:nonzero"
   id="path293"
   d="m 1771,721 c -15,0 -27,-4 -35,-13 -8,-9 -12,-22 -12,-39 0,-17 4,-30 13,-39 8,-10 19,-14 35,-14 4,0 9,0 14,1 5,1 9,3 12,4 l -5,13 c -3,-1 -7,-2 -11,-3 -4,-1 -8,-2 -11,-2 -20,0 -31,14 -31,40 0,12 3,22 8,29 5,6 12,10 22,10 9,0 17,-2 26,-6 l 0,14 c -7,3 -15,5 -25,5 z"
   class="fil1" />
   <polygon
   style="fill:#5b5b5b;fill-rule:nonzero"
   id="polygon295"
   points="1860,719 1844,719 1844,631 1812,631 1812,618 1893,618 1893,631 1860,631 "
   class="fil1" />
   <g
   id="g297">
    <g
   id="g299">
     <path
   style="fill:#5b5b5b;fill-rule:nonzero"
   id="path301"
   d="m 960,780 6,0 0,18 c 1,0 2,-1 3,-1 1,0 2,0 3,-1 0,0 1,-1 2,-2 0,-1 1,-2 2,-4 0,-2 1,-4 2,-5 1,-1 2,-2 3,-3 1,-1 2,-1 3,-1 1,-1 2,-1 4,-1 l 1,0 0,6 c -1,0 -3,0 -3,0 -1,0 -2,1 -3,1 0,1 -1,2 -1,2 -1,1 -1,2 -2,4 0,0 0,1 -1,2 0,1 0,1 -1,2 -1,1 -1,1 -2,2 0,1 -1,1 -1,1 1,1 2,1 2,2 1,0 2,1 2,2 1,0 2,1 2,2 1,1 2,2 3,4 l 7,13 -7,0 -6,-12 c -1,-1 -2,-3 -3,-4 -1,-1 -2,-2 -3,-3 -1,0 -1,-1 -2,-1 -1,0 -3,0 -4,0 l 0,20 -6,0 0,-43 z"
   class="fil1" />
     <polygon
   style="fill:#5b5b5b;fill-rule:nonzero"
   id="polygon303"
   points="1002,823 996,823 1009,794 1011,794 1023,823 1017,823 1010,804 "
   class="fil1" />
     <polygon
   style="fill:#5b5b5b;fill-rule:nonzero"
   id="polygon305"
   points="1052,795 1055,795 1055,823 1049,823 1049,805 1033,824 1030,824 1030,795 1035,795 1035,814 "
   class="fil1" />
     <polygon
   style="fill:#5b5b5b;fill-rule:nonzero"
   id="polygon307"
   points="1084,823 1084,811 1070,811 1070,823 1065,823 1065,795 1070,795 1070,806 1084,806 1084,795 1090,795 1090,823 "
   class="fil1" />
     <polygon
   style="fill:#5b5b5b;fill-rule:nonzero"
   id="polygon309"
   points="1122,795 1125,795 1125,823 1119,823 1119,805 1103,824 1100,824 1100,795 1105,795 1105,814 "
   class="fil1" />
     <path
   style="fill:#5b5b5b;fill-rule:nonzero"
   id="path311"
   d="m 1141,806 c 1,0 2,0 3,-1 1,0 2,-1 3,-3 l 1,-3 c 1,-1 1,-1 2,-2 0,-1 1,-1 1,-1 1,-1 1,-1 2,-1 1,0 1,0 2,0 l 1,0 0,5 -1,0 c -1,0 -1,0 -2,0 0,1 0,1 -1,2 l -1,2 c 0,1 -1,1 -1,2 0,0 -1,1 -1,1 0,0 -1,1 -1,1 -1,0 -1,0 -2,0 1,1 2,1 2,1 1,0 1,1 2,1 0,1 1,2 1,2 1,1 2,2 2,3 l 4,8 -6,0 -4,-8 c -1,-1 -2,-3 -3,-3 -1,-1 -2,-1 -3,-1 l -1,0 0,12 -5,0 0,-28 5,0 0,11 1,0 z"
   class="fil1" />
     <path
   style="fill:#5b5b5b;fill-rule:nonzero"
   id="path313"
   d="m 1177,794 c 2,0 4,1 6,1 2,1 3,2 5,3 1,2 2,3 3,5 1,2 1,4 1,6 0,2 0,4 -1,6 -1,2 -2,3 -3,4 -1,2 -3,3 -5,4 -2,0 -4,1 -6,1 -2,0 -4,-1 -6,-2 -2,0 -4,-1 -5,-3 -1,-1 -2,-3 -3,-4 -1,-2 -1,-4 -1,-6 0,-2 0,-4 1,-6 1,-2 2,-3 3,-5 2,-1 3,-2 5,-3 2,0 4,-1 6,-1 z m 0,5 0,0 c -2,0 -3,1 -4,1 -1,0 -2,1 -3,2 -1,1 -1,2 -2,3 0,1 0,2 0,4 0,1 0,3 0,4 1,1 1,2 2,3 1,1 2,1 3,2 1,0 2,1 4,1 1,0 3,-1 4,-1 1,-1 2,-1 3,-2 1,-1 1,-2 2,-3 0,-1 0,-3 0,-4 0,-2 0,-3 0,-4 -1,-1 -1,-2 -2,-3 -1,-1 -2,-2 -3,-2 -2,0 -3,-1 -4,-1 z"
   class="fil1" />
     <polygon
   style="fill:#5b5b5b;fill-rule:nonzero"
   id="polygon315"
   points="1215,812 1200,812 1200,806 1215,806 "
   class="fil1" />
     <path
   style="fill:#5b5b5b;fill-rule:nonzero"
   id="path317"
   d="m 1250,829 -6,0 0,-6 -19,0 0,6 -5,0 0,-11 2,0 12,-24 3,0 10,24 3,0 0,11 z m -9,-11 0,0 -6,-15 -7,15 13,0 z"
   class="fil1" />
     <polygon
   style="fill:#5b5b5b;fill-rule:nonzero"
   id="polygon319"
   points="1278,795 1281,795 1281,823 1276,823 1276,805 1259,824 1256,824 1256,795 1262,795 1262,814 "
   class="fil1" />
     <path
   style="fill:#5b5b5b;fill-rule:nonzero"
   id="path321"
   d="m 1304,806 0,-2 c 0,-1 0,-3 -1,-3 -1,-1 -2,-1 -4,-1 -2,0 -3,0 -5,1 -1,0 -3,2 -4,3 l 0,-6 c 2,-2 5,-4 9,-4 2,0 3,0 4,1 2,0 3,1 4,1 1,1 1,2 2,3 0,2 1,3 1,5 l 0,14 c 0,1 0,1 0,1 0,0 0,1 1,1 0,0 0,-1 1,-1 0,0 1,-1 2,-1 l 0,3 c -1,1 -2,1 -2,1 0,1 -1,1 -1,1 -1,0 -1,0 -1,0 -1,1 -1,1 -2,1 -1,0 -2,-1 -3,-1 0,-1 -1,-1 -1,-2 -1,1 -2,1 -4,2 -1,0 -2,1 -4,1 -1,0 -2,-1 -2,-1 -1,0 -2,-1 -3,-1 0,-1 -1,-2 -1,-3 0,-1 -1,-1 -1,-2 0,-2 1,-3 1,-4 1,-1 1,-1 2,-2 1,-1 2,-1 3,-2 1,0 3,-1 4,-1 l 5,-2 z m 0,3 0,0 c -1,0 -2,1 -3,1 -1,1 -2,1 -3,2 -1,0 -2,1 -2,1 -1,1 -1,2 -1,3 0,0 0,1 0,1 1,1 1,1 1,2 1,0 1,0 2,0 0,1 1,1 1,1 1,0 2,-1 3,-1 1,0 1,-1 2,-2 l 0,-8 z"
   class="fil1" />
     <polygon
   style="fill:#5b5b5b;fill-rule:nonzero"
   id="polygon323"
   points="1321,823 1321,795 1339,795 1339,800 1326,800 1326,823 "
   class="fil1" />
     <polygon
   style="fill:#5b5b5b;fill-rule:nonzero"
   id="polygon325"
   points="1365,823 1365,811 1351,811 1351,823 1346,823 1346,795 1351,795 1351,806 1365,806 1365,795 1371,795 1371,823 "
   class="fil1" />
     <path
   style="fill:#5b5b5b;fill-rule:nonzero"
   id="path327"
   d="m 1394,794 c 2,0 4,1 6,1 2,1 3,2 5,3 1,2 2,3 3,5 1,2 1,4 1,6 0,2 0,4 -1,6 -1,2 -2,3 -3,4 -2,2 -3,3 -5,4 -2,0 -4,1 -6,1 -2,0 -4,-1 -6,-2 -2,0 -4,-1 -5,-3 -1,-1 -2,-3 -3,-4 -1,-2 -1,-4 -1,-6 0,-2 0,-4 1,-6 1,-2 2,-3 3,-5 1,-1 3,-2 5,-3 2,0 4,-1 6,-1 z m 0,5 0,0 c -2,0 -3,1 -4,1 -1,0 -2,1 -3,2 -1,1 -1,2 -2,3 0,1 0,2 0,4 0,1 0,3 0,4 1,1 1,2 2,3 1,1 2,1 3,2 1,0 2,1 4,1 1,0 2,-1 4,-1 1,-1 2,-1 3,-2 1,-1 1,-2 2,-3 0,-1 0,-3 0,-4 0,-2 0,-3 0,-4 -1,-1 -2,-2 -2,-3 -1,-1 -2,-2 -3,-2 -2,0 -3,-1 -4,-1 z"
   class="fil1" />
     <path
   style="fill:#5b5b5b;fill-rule:nonzero"
   id="path329"
   d="m 1438,822 c 0,0 -1,0 -1,1 -1,0 -2,0 -2,0 -1,0 -2,0 -3,0 0,1 -1,1 -2,1 -2,0 -4,-1 -6,-1 -1,-1 -3,-2 -4,-3 -2,-2 -2,-3 -3,-5 -1,-2 -1,-3 -1,-6 0,-2 0,-4 1,-6 0,-2 1,-3 3,-5 1,-1 2,-2 4,-3 2,0 4,-1 6,-1 1,0 1,0 2,0 1,0 1,1 2,1 1,0 1,0 2,0 1,1 1,1 2,1 l 0,6 c -1,0 -2,-1 -2,-1 -1,-1 -2,-1 -2,-1 -1,0 -2,0 -2,0 -1,-1 -1,-1 -2,-1 -1,0 -2,1 -3,1 -1,1 -2,1 -3,2 -1,1 -1,2 -2,3 0,1 -1,3 -1,4 0,1 1,3 1,4 1,1 1,2 2,3 1,1 2,1 3,2 1,0 3,0 4,0 1,0 2,0 4,0 1,0 2,-1 3,-2 l 0,6 z"
   class="fil1" />
     <polygon
   style="fill:#5b5b5b;fill-rule:nonzero"
   id="polygon331"
   points="1454,823 1454,800 1444,800 1444,795 1470,795 1470,800 1460,800 1460,823 "
   class="fil1" />
     <polygon
   style="fill:#5b5b5b;fill-rule:nonzero"
   id="polygon333"
   points="1499,795 1502,795 1502,823 1496,823 1496,805 1480,824 1477,824 1477,795 1482,795 1482,814 "
   class="fil1" />
     <path
   style="fill:#5b5b5b;fill-rule:nonzero"
   id="path335"
   d="m 1533,795 0,28 -5,0 0,-12 c -1,0 -1,0 -2,1 0,0 -1,0 -2,0 0,1 -1,1 -2,1 -1,0 -1,0 -2,0 -4,0 -6,-1 -8,-3 -2,-1 -3,-4 -3,-8 l 0,-7 6,0 0,7 c 0,1 0,2 0,3 1,1 1,2 1,2 1,0 1,1 2,1 1,0 2,0 3,0 1,0 1,0 2,0 1,0 1,0 2,-1 1,0 1,0 2,0 0,-1 1,-1 1,-1 l 0,-11 5,0 z"
   class="fil1" />
     <path
   style="fill:#5b5b5b;fill-rule:nonzero"
   id="path337"
   d="m 1548,810 c 0,5 4,8 9,8 2,0 3,0 5,-1 2,0 3,-1 5,-2 l 0,5 c -1,1 -2,1 -3,2 0,0 -1,1 -2,1 -1,0 -2,0 -3,0 -1,1 -2,1 -3,1 -3,0 -4,-1 -6,-2 -2,0 -3,-2 -4,-3 -2,-1 -3,-3 -3,-5 -1,-2 -1,-3 -1,-5 0,-3 0,-5 1,-6 1,-2 1,-4 3,-5 1,-1 2,-2 4,-3 1,0 3,-1 5,-1 2,0 4,1 5,1 2,1 3,2 4,3 1,1 2,3 3,5 0,2 0,4 0,7 l -19,0 z m 14,-4 0,0 c 0,-2 -1,-4 -2,-5 -1,-1 -3,-2 -5,-2 -2,0 -4,1 -5,2 -1,1 -2,3 -2,5 l 14,0 z"
   class="fil1" />
     <path
   style="fill:#5b5b5b;fill-rule:nonzero"
   id="path339"
   d="m 1597,822 c 0,0 -1,0 -2,1 0,0 -1,0 -2,0 -1,0 -1,0 -2,0 -1,1 -2,1 -2,1 -2,0 -4,-1 -6,-1 -2,-1 -3,-2 -5,-3 -1,-2 -2,-3 -3,-5 0,-2 -1,-3 -1,-6 0,-2 1,-4 1,-6 1,-2 2,-3 3,-5 1,-1 3,-2 4,-3 2,0 4,-1 6,-1 1,0 2,0 3,0 0,0 1,1 2,1 0,0 1,0 1,0 1,1 2,1 2,1 l 0,6 c 0,0 -1,-1 -2,-1 0,-1 -1,-1 -2,-1 0,0 -1,0 -2,0 0,-1 -1,-1 -1,-1 -2,0 -3,1 -4,1 -1,1 -2,1 -3,2 0,1 -1,2 -1,3 -1,1 -1,3 -1,4 0,1 0,3 1,4 0,1 1,2 2,3 0,1 1,1 3,2 1,0 2,0 4,0 1,0 2,0 3,0 1,0 3,-1 4,-2 l 0,6 z"
   class="fil1" />
     <path
   style="fill:#5b5b5b;fill-rule:nonzero"
   id="path341"
   d="m 1612,806 c 1,0 2,0 3,-1 1,0 2,-1 2,-3 l 2,-3 c 0,-1 1,-1 1,-2 1,-1 1,-1 2,-1 0,-1 1,-1 2,-1 0,0 1,0 2,0 l 1,0 0,5 -1,0 c -1,0 -2,0 -2,0 0,1 -1,1 -1,2 l -1,2 c -1,1 -1,1 -1,2 -1,0 -1,1 -1,1 -1,0 -1,1 -2,1 0,0 -1,0 -1,0 1,1 1,1 2,1 0,0 1,1 2,1 0,1 1,2 1,2 1,1 1,2 2,3 l 4,8 -6,0 -4,-8 c -1,-1 -2,-3 -3,-3 -1,-1 -2,-1 -3,-1 l -1,0 0,12 -6,0 0,-28 6,0 0,11 1,0 z"
   class="fil1" />
     <polygon
   style="fill:#5b5b5b;fill-rule:nonzero"
   id="polygon343"
   points="1657,795 1660,795 1660,823 1654,823 1654,805 1638,824 1635,824 1635,795 1641,795 1641,814 "
   class="fil1" />
     <path
   style="fill:#5b5b5b;fill-rule:nonzero"
   id="path345"
   d="m 1689,805 -16,19 -3,0 0,-29 6,0 0,19 16,-19 3,0 0,28 -6,0 0,-18 z m -11,-22 0,0 c 0,1 1,2 2,3 0,0 1,1 3,1 1,0 2,-1 3,-1 0,-1 1,-2 1,-3 l 5,0 c -1,2 -2,4 -3,6 -2,1 -4,2 -6,2 -3,0 -5,-1 -6,-2 -2,-2 -3,-4 -3,-6 l 4,0 z"
   class="fil1" />
     <polygon
   style="fill:#5b5b5b;fill-rule:nonzero"
   id="polygon347"
   points="1763,818 1763,831 1757,831 1757,823 1721,823 1721,780 1727,780 1727,818 1751,818 1751,780 1757,780 1757,818 "
   class="fil1" />
     <path
   style="fill:#5b5b5b;fill-rule:nonzero"
   id="path349"
   d="m 1773,810 c 1,5 5,8 10,8 2,0 3,0 5,-1 2,0 3,-1 5,-2 l 0,5 c -1,1 -2,1 -3,2 -1,0 -1,1 -2,1 -1,0 -2,0 -3,0 -1,1 -2,1 -3,1 -3,0 -5,-1 -6,-2 -2,0 -3,-2 -5,-3 -1,-1 -2,-3 -2,-5 -1,-2 -1,-3 -1,-5 0,-3 0,-5 1,-6 0,-2 1,-4 3,-5 1,-1 2,-2 4,-3 1,0 3,-1 5,-1 2,0 4,1 5,1 2,1 3,2 4,3 1,1 2,3 2,5 1,2 1,4 1,7 l -20,0 z m 15,-4 0,0 c 0,-2 -1,-4 -2,-5 -1,-1 -3,-2 -5,-2 -2,0 -4,1 -5,2 -1,1 -2,3 -2,5 l 14,0 z"
   class="fil1" />
     <polygon
   style="fill:#5b5b5b;fill-rule:nonzero"
   id="polygon351"
   points="1821,823 1821,811 1807,811 1807,823 1802,823 1802,795 1807,795 1807,806 1821,806 1821,795 1827,795 1827,823 "
   class="fil1" />
     <polygon
   style="fill:#5b5b5b;fill-rule:nonzero"
   id="polygon353"
   points="1844,823 1844,800 1834,800 1834,795 1859,795 1859,800 1849,800 1849,823 "
   class="fil1" />
     <path
   style="fill:#5b5b5b;fill-rule:nonzero"
   id="path355"
   d="m 1876,795 c 5,0 9,1 12,3 2,3 4,6 4,11 0,2 -1,4 -1,6 -1,2 -2,3 -3,5 -2,1 -3,2 -5,3 -2,0 -4,1 -6,1 -1,0 -1,-1 -2,-1 -1,0 -2,0 -3,-1 l 0,16 -6,0 0,-43 10,0 z m -4,5 0,0 0,17 c 1,1 3,2 5,2 1,0 3,-1 4,-1 1,-1 2,-1 2,-2 1,-1 2,-2 2,-3 1,-1 1,-3 1,-4 0,-1 0,-3 -1,-4 0,-1 -1,-2 -2,-3 0,-1 -1,-1 -3,-2 -1,0 -2,0 -3,0 l -5,0 z"
   class="fil1" />
    </g>
   </g>
  </g>
 </g>
</svg>